<svg fill="currentColor" viewBox="0 0 32 32">
  <path
    fill="#dd4c35"
    d="M29.5 14.8L17.2 2.5a1.8 1.8 0 00-2.5 0l-2.5 2.6 3.2 3.2A2.1 2.1 0 0118 11l3 3.1a2.1 2.1 0 11-1.2 1.2L17 12.4V20a2.1 2.1 0 11-1.8 0v-7.7a2.1 2.1 0 01-1.1-2.8l-3.2-3.2-8.4 8.4a1.8 1.8 0 000 2.6l12.3 12.2a1.8 1.8 0 002.5 0l12.2-12.2a1.8 1.8 0 000-2.6"
  />
  <path
    fill="#121316"
    d="M12.2 5l3.2 3.3A2.1 2.1 0 0118 11l3 3.1a2.1 2.1 0 11-1.2 1.2L17 12.4V20a2.1 2.1 0 11-1.8 0v-7.7a2.1 2.1 0 01-1.1-2.8l-3.2-3.2"
  />
</svg>
