<svg fill="currentColor" viewBox="0 0 32 32">
  <path
    fill="#83cd29"
    d="M16 30a2.2 2.2 0 01-1-.3l-3.5-2c-.5-.3-.3-.4 0-.5a6.8 6.8 0 001.5-.7.3.3 0 01.2 0l2.6 1.6a.3.3 0 00.4 0l10.2-5.9a.3.3 0 00.2-.3V10.1a.3.3 0 00-.2-.3l-10.2-6a.3.3 0 00-.4 0l-10.2 6a.3.3 0 00-.2.3v11.8a.3.3 0 00.2.3l2.8 1.6c1.5.8 2.5-.1 2.5-1V11a.3.3 0 01.3-.3h1.3a.3.3 0 01.3.3v11.7c0 2-1.1 3.2-3 3.2a4.4 4.4 0 01-2.4-.7l-2.7-1.5a2.2 2.2 0 01-1.1-1.9V10.1a2.2 2.2 0 011-1.9l10.3-6a2.2 2.2 0 012.2 0l10.2 6a2.2 2.2 0 011.1 1.9v11.8a2.2 2.2 0 01-1 1.9l-10.3 6a2.2 2.2 0 01-1.1.2z"
  />
  <path
    fill="#83cd29"
    d="M14 18a.3.3 0 01.4-.3h1.3a.3.3 0 01.3.2c.2 1.4.8 2 3.5 2 2.2 0 3-.5 3-1.6 0-.7-.2-1.2-3.5-1.5-2.9-.3-4.6-.9-4.6-3.1 0-2.1 1.8-3.3 4.7-3.3 3.3 0 4.9 1.1 5.1 3.6a.3.3 0 01-.3.3h-1.3a.3.3 0 01-.3-.3c-.3-1.4-1.1-1.8-3.2-1.8-2.4 0-2.7.8-2.7 1.4 0 .8.4 1 3.6 1.4 3.1.4 4.6 1 4.6 3.2 0 2.3-1.9 3.5-5.1 3.5-4.5 0-5.4-2-5.4-3.7z"
  />
</svg>
