<svg fill="currentColor" viewBox="0 0 32 32">
  <circle cx="16" cy="16" r="2.5" fill="#00d8ff" />
  <path
    d="M16 21.7a28.4 28.4 0 01-8.9-1.2 11.3 11.3 0 01-3.6-2A3.5 3.5 0 012 16c0-1.7 1.8-3.3 4.9-4.4a28.8 28.8 0 019.1-1.3 28.7 28.7 0 019 1.3 11.4 11.4 0 013.6 1.9A3.4 3.4 0 0130 16c0 1.7-2 3.4-5.3 4.5a28.8 28.8 0 01-8.7 1.2zm0-10.2a28 28 0 00-8.7 1.3c-2.8 1-4.1 2.3-4.1 3.2 0 .9 1.3 2.4 4.3 3.4a27.2 27.2 0 008.5 1.1 27.6 27.6 0 008.3-1.1c3.1-1 4.5-2.5 4.5-3.4a2.3 2.3 0 00-1-1.6 10.2 10.2 0 00-3.2-1.7 27.5 27.5 0 00-8.6-1.2z"
    fill="#00d8ff"
  />
  <path
    d="M10.3 28.4a2.6 2.6 0 01-1.3-.3c-1.4-.8-2-3.2-1.3-6.4a28.8 28.8 0 013.4-8.6A28.7 28.7 0 0116.7 6a11.4 11.4 0 013.4-2.1 3.4 3.4 0 012.9 0c1.5.8 2 3.4 1.3 6.8a28.8 28.8 0 01-3.4 8.2 28.4 28.4 0 01-5.4 7 11.3 11.3 0 01-3.6 2.2 5 5 0 01-1.6.3zm1.8-14.7A28 28 0 008.8 22c-.5 2.9 0 4.6.8 5 .8.5 2.7.1 5-2a27.2 27.2 0 005.3-6.7 27.6 27.6 0 003.2-7.8c.6-3.2 0-5.1-.7-5.6a2.3 2.3 0 00-1.9 0 10.2 10.2 0 00-3 2 27.5 27.5 0 00-5.4 6.8z"
    fill="#00d8ff"
  />
  <path
    d="M21.7 28.5c-1.4 0-3.1-.9-4.9-2.4a28.8 28.8 0 01-5.7-7.2 28.7 28.7 0 01-3.4-8.5 11.4 11.4 0 01-.2-4A3.4 3.4 0 019 3.9c1.5-.9 4 0 6.5 2.3a28.8 28.8 0 015.4 7 28.4 28.4 0 013.4 8.2 11.3 11.3 0 01.2 4.2A3.5 3.5 0 0123 28a2.6 2.6 0 01-1.3.4zM12 18.3a28 28 0 005.5 6.9c2.2 2 4 2.3 4.8 1.9.8-.5 1.4-2.4.8-5.4a27.2 27.2 0 00-3.3-8 27.6 27.6 0 00-5.1-6.6c-2.5-2.2-4.4-2.6-5.2-2.2a2.3 2.3 0 00-.9 1.7 10.2 10.2 0 00.2 3.6 27.5 27.5 0 003.2 8z"
    fill="#00d8ff"
  />
</svg>
