<svg fill="currentColor" viewBox="0 0 32 32">
  <path
    fill="#ffda44"
    d="M9 15a21 21 0 007 1 21 21 0 007-1c2 0 3-1 3-2v-3a10 10 0 01-2 1 22 22 0 01-8 1 22 22 0 01-8-1 10 10 0 01-2-1v3l3 2zm0 7a16 16 0 002 1 25 25 0 005 0 25 25 0 005 0 16 16 0 002-1l3-2v-3a11 11 0 01-2 0 24 24 0 01-8 2 24 24 0 01-8-2 11 11 0 01-2 0v3l3 2zm7 8c6 0 10-2 10-4v-3a11 11 0 01-2 1 24 24 0 01-8 1 23 23 0 01-8-1 11 11 0 01-2-1v3c0 2 4 4 10 4z"
  />
  <ellipse cx="16" cy="5.9" fill="#ffda44" rx="10" ry="3.9" />
</svg>
