<svg fill="currentColor" viewBox="0 0 32 32">
  <path
    fill="#007acc"
    d="M23.8 8.2a4.4 4.4 0 012.3 1.3 5.9 5.9 0 01.8 1.2l-2.5 1.6-.3-.3a2 2 0 00-1.7-1c-1 0-1.7.5-1.7 1.4a1.3 1.3 0 00.1.7c.3.5.7.8 2 1.4 2.6 1 3.7 1.8 4.4 2.8a5.2 5.2 0 01.4 4.3 4.8 4.8 0 01-4 2.9 10.9 10.9 0 01-2.6 0 6.5 6.5 0 01-3.6-2 6.3 6.3 0 01-1-1.3 2.7 2.7 0 01.4-.2l1.3-.8 1-.6.2.3a4.8 4.8 0 001.4 1.3A3.3 3.3 0 0024 21a1.5 1.5 0 00.2-2c-.3-.3-.8-.7-2.4-1.4a8.8 8.8 0 01-3.4-2 4.7 4.7 0 01-1-1.8 7.1 7.1 0 010-2.3A4.3 4.3 0 0121 8.2a9 9 0 012.7 0zm-8.3 1.5v1.5h-4.6v13.1H7.6V11.2H3V9.8a14 14 0 010-1.5h12.5z"
  />
</svg>
