<?xml version="1.0" encoding="UTF-8" standalone="no"?>
<svg
   xmlns:dc="http://purl.org/dc/elements/1.1/"
   xmlns:cc="http://creativecommons.org/ns#"
   xmlns:rdf="http://www.w3.org/1999/02/22-rdf-syntax-ns#"
   xmlns:svg="http://www.w3.org/2000/svg"
   xmlns="http://www.w3.org/2000/svg"
   xmlns:sodipodi="http://sodipodi.sourceforge.net/DTD/sodipodi-0.dtd"
   xmlns:inkscape="http://www.inkscape.org/namespaces/inkscape"
   width="32"
   height="32"
   version="1.0"
   viewBox="0 0 3e3 3e3"
   id="svg16"
   sodipodi:docname="cropped.svg"
   inkscape:version="0.92.3 (2405546, 2018-03-11)">
  <metadata
     id="metadata22">
    <rdf:RDF>
      <cc:Work
         rdf:about="">
        <dc:format>image/svg+xml</dc:format>
        <dc:type
           rdf:resource="http://purl.org/dc/dcmitype/StillImage" />
        <dc:title></dc:title>
      </cc:Work>
    </rdf:RDF>
  </metadata>
  <defs
     id="defs20">
    <clipPath
       clipPathUnits="userSpaceOnUse"
       id="clipPath909">
      <g
         style="fill:#121316"
         id="g913">
        <path
           d="M 0,1500 V 0 H 1500 3000 V 1500 3000 H 1500 0 Z"
           id="path911"
           inkscape:connector-curvature="0" />
      </g>
    </clipPath>
  </defs>
  <sodipodi:namedview
     pagecolor="#121316"
     bordercolor="#666666"
     borderopacity="1"
     objecttolerance="10"
     gridtolerance="10"
     guidetolerance="10"
     inkscape:pageopacity="0"
     inkscape:pageshadow="2"
     inkscape:window-width="1856"
     inkscape:window-height="1080"
     id="namedview18"
     showgrid="false"
     inkscape:zoom="7.375"
     inkscape:cx="-4.8935463"
     inkscape:cy="26.599314"
     inkscape:window-x="64"
     inkscape:window-y="0"
     inkscape:window-maximized="1"
     inkscape:current-layer="layer2" />
  <g
     inkscape:groupmode="layer"
     id="layer2"
     inkscape:label="Layer 2">
    <g
       style=""
       id="g841"
       clip-path="url(#clipPath909)">
      <g
         id="g8"
         transform="matrix(1.7319 -1.3793 .70711 .70711 -2176.2 2515.7)"
         fill="#6fb716">
        <path
           id="path6"
           d="m0 1898v-694l1493-372c820-205 1495-372 1500-372 4 0 7 312 7 693v693l-1477 367c-813 202-1488 370-1500 373l-23 6z" />
      </g>
      <path
         id="path10"
         style="paint-order:fill markers stroke"
         d="m-1161.5 3530.4-163.34-163.34 2322.7-2322.4c1275.2-1276 2326.2-2325.1 2334.9-2332 6.9277-5.5173 84.956 63.177 174.76 152.98l162.63 162.63-34.567 33.881c-20.394 20.053-1070.7 1069.9-2333.4 2333.5l-2299.6 2298.9z"
         fill="#fe272a" />
      <g
         id="g14"
         transform="matrix(1.7319 -1.3793 .70711 .70711 -2176.2 2515.7)"
         fill="#1aa2c9">
        <path
           id="path12"
           d="m0 2361v-231l23-5c12-3 687-171 1500-374l1477-368v463l-1477 367c-813 202-1488 370-1500 373l-23 6z" />
      </g>
    </g>
  </g>
  <g
     inkscape:groupmode="layer"
     id="layer1"
     inkscape:label="Layer 1" />
</svg>
